<svg xmlns="http://www.w3.org/2000/svg" xml:space="preserve" enable-background="new 0 0 100 100" version="1.0" viewBox="0 0 100 100" id="user">
  <g id="user-rounded-square">
    <g>
      <path d="M85.356,24.693v-0.002c-0.875-5.135-4.915-9.174-10.046-10.048c-16.679-2.842-33.927-2.846-50.616,0
			c-5.137,0.875-9.176,4.913-10.05,10.05C13.22,33.036,12.5,41.551,12.5,50c0,8.451,0.72,16.968,2.142,25.309
			c0.875,5.131,4.913,9.172,10.05,10.046C33.036,86.78,41.551,87.5,50,87.5c8.451,0,16.968-0.72,25.313-2.144
			c5.131-0.875,9.167-4.911,10.042-10.046C86.78,66.968,87.5,58.451,87.5,50C87.5,41.551,86.78,33.036,85.356,24.693z"></path>
      <g>
        <ellipse cx="50" cy="39.583" fill="#B5A0F3" rx="12.5" ry="14.583"></ellipse>
        <path fill="#B5A0F3" d="M69.69,63.798c-3.687-3.687-9.167-4.667-13.961-2.527c-3.644,1.636-7.825,1.632-11.452,0.004
				c-4.799-2.148-10.28-1.164-13.969,2.523C26.886,67.224,25,71.777,25,76.615v5.196c0,2.071,1.522,3.829,3.573,4.126
				C35.779,86.975,42.987,87.5,50,87.5c7.011,0,14.221-0.525,21.427-1.563C73.478,85.64,75,83.883,75,81.812v-5.196
				C75,71.773,73.116,67.22,69.69,63.798z"></path>
      </g>
    </g>
  </g>
</svg>